<mxfile host="app.diagrams.net" agent="Mozilla/5.0 (Macintosh; Intel Mac OS X 10_15_7) AppleWebKit/537.36 (KHTML, like Gecko) Chrome/132.0.0.0 YaBrowser/25.2.0.0 Safari/537.36" version="26.2.14">
  <diagram name="Страница — 1" id="8arT2AOrtYDYh2C0rBxr">
    <mxGraphModel dx="1018" dy="701" grid="1" gridSize="10" guides="1" tooltips="1" connect="1" arrows="1" fold="1" page="1" pageScale="1" pageWidth="827" pageHeight="1169" math="0" shadow="0">
      <root>
        <mxCell id="0" />
        <mxCell id="1" parent="0" />
        <mxCell id="MEVX8h5RplZYgz9Gu9Su-13" value="" style="rounded=1;whiteSpace=wrap;html=1;" vertex="1" parent="1">
          <mxGeometry x="172.69" y="310" width="217.31" height="200" as="geometry" />
        </mxCell>
        <mxCell id="MEVX8h5RplZYgz9Gu9Su-4" value="" style="sketch=0;verticalLabelPosition=bottom;sketch=0;aspect=fixed;html=1;verticalAlign=top;strokeColor=none;fillColor=#000000;align=center;outlineConnect=0;pointerEvents=1;shape=mxgraph.citrix2.site_database;" vertex="1" parent="1">
          <mxGeometry x="257.3" y="330" width="45.395" height="50" as="geometry" />
        </mxCell>
        <mxCell id="MEVX8h5RplZYgz9Gu9Su-6" value="MANAGER" style="rounded=1;whiteSpace=wrap;html=1;" vertex="1" parent="1">
          <mxGeometry x="220" y="220" width="120" height="60" as="geometry" />
        </mxCell>
        <mxCell id="MEVX8h5RplZYgz9Gu9Su-8" value="" style="sketch=0;verticalLabelPosition=bottom;sketch=0;aspect=fixed;html=1;verticalAlign=top;strokeColor=none;fillColor=#000000;align=center;outlineConnect=0;pointerEvents=1;shape=mxgraph.citrix2.site_database;" vertex="1" parent="1">
          <mxGeometry x="211.9" y="413" width="45.395" height="50" as="geometry" />
        </mxCell>
        <mxCell id="MEVX8h5RplZYgz9Gu9Su-9" value="" style="sketch=0;verticalLabelPosition=bottom;sketch=0;aspect=fixed;html=1;verticalAlign=top;strokeColor=none;fillColor=#000000;align=center;outlineConnect=0;pointerEvents=1;shape=mxgraph.citrix2.site_database;" vertex="1" parent="1">
          <mxGeometry x="302.69" y="413" width="45.395" height="50" as="geometry" />
        </mxCell>
        <mxCell id="MEVX8h5RplZYgz9Gu9Su-10" value="Primary" style="text;html=1;align=center;verticalAlign=middle;whiteSpace=wrap;rounded=0;" vertex="1" parent="1">
          <mxGeometry x="250" y="380" width="60" height="30" as="geometry" />
        </mxCell>
        <mxCell id="MEVX8h5RplZYgz9Gu9Su-11" value="Secondary 1" style="text;html=1;align=center;verticalAlign=middle;whiteSpace=wrap;rounded=0;" vertex="1" parent="1">
          <mxGeometry x="196" y="465" width="74.6" height="30" as="geometry" />
        </mxCell>
        <mxCell id="MEVX8h5RplZYgz9Gu9Su-12" value="Secondary 2" style="text;html=1;align=center;verticalAlign=middle;whiteSpace=wrap;rounded=0;" vertex="1" parent="1">
          <mxGeometry x="289.39" y="465" width="74.61" height="30" as="geometry" />
        </mxCell>
        <mxCell id="MEVX8h5RplZYgz9Gu9Su-14" value="MongoDB" style="text;html=1;align=center;verticalAlign=middle;whiteSpace=wrap;rounded=0;" vertex="1" parent="1">
          <mxGeometry x="251.35000000000002" y="510" width="60" height="30" as="geometry" />
        </mxCell>
        <mxCell id="MEVX8h5RplZYgz9Gu9Su-16" value="" style="rounded=1;whiteSpace=wrap;html=1;" vertex="1" parent="1">
          <mxGeometry x="450" y="99.5" width="220" height="270" as="geometry" />
        </mxCell>
        <mxCell id="MEVX8h5RplZYgz9Gu9Su-17" value="RabbitMQ" style="text;html=1;align=center;verticalAlign=middle;whiteSpace=wrap;rounded=0;" vertex="1" parent="1">
          <mxGeometry x="530" y="370.5" width="60" height="30" as="geometry" />
        </mxCell>
        <mxCell id="MEVX8h5RplZYgz9Gu9Su-18" value="" style="strokeWidth=2;html=1;shape=mxgraph.flowchart.direct_data;whiteSpace=wrap;" vertex="1" parent="1">
          <mxGeometry x="500" y="177.5" width="120" height="30" as="geometry" />
        </mxCell>
        <mxCell id="MEVX8h5RplZYgz9Gu9Su-19" value="" style="strokeWidth=2;html=1;shape=mxgraph.flowchart.direct_data;whiteSpace=wrap;" vertex="1" parent="1">
          <mxGeometry x="500" y="237.5" width="120" height="30" as="geometry" />
        </mxCell>
        <mxCell id="MEVX8h5RplZYgz9Gu9Su-20" value="" style="strokeWidth=2;html=1;shape=mxgraph.flowchart.direct_data;whiteSpace=wrap;" vertex="1" parent="1">
          <mxGeometry x="500" y="117.5" width="120" height="30" as="geometry" />
        </mxCell>
        <mxCell id="MEVX8h5RplZYgz9Gu9Su-21" value="Result Queue" style="text;html=1;align=center;verticalAlign=middle;whiteSpace=wrap;rounded=0;" vertex="1" parent="1">
          <mxGeometry x="500" y="141.5" width="120" height="30" as="geometry" />
        </mxCell>
        <mxCell id="MEVX8h5RplZYgz9Gu9Su-22" value="Task Queue" style="text;html=1;align=center;verticalAlign=middle;whiteSpace=wrap;rounded=0;" vertex="1" parent="1">
          <mxGeometry x="500" y="200.5" width="120" height="30" as="geometry" />
        </mxCell>
        <mxCell id="MEVX8h5RplZYgz9Gu9Su-23" value="Status Request Queue" style="text;html=1;align=center;verticalAlign=middle;whiteSpace=wrap;rounded=0;" vertex="1" parent="1">
          <mxGeometry x="490" y="262.5" width="140" height="30" as="geometry" />
        </mxCell>
        <mxCell id="MEVX8h5RplZYgz9Gu9Su-25" value="" style="strokeWidth=2;html=1;shape=mxgraph.flowchart.direct_data;whiteSpace=wrap;" vertex="1" parent="1">
          <mxGeometry x="500" y="304.5" width="120" height="30" as="geometry" />
        </mxCell>
        <mxCell id="MEVX8h5RplZYgz9Gu9Su-26" value="Status Request Queue" style="text;html=1;align=center;verticalAlign=middle;whiteSpace=wrap;rounded=0;" vertex="1" parent="1">
          <mxGeometry x="490" y="329.5" width="140" height="30" as="geometry" />
        </mxCell>
        <mxCell id="MEVX8h5RplZYgz9Gu9Su-30" value="" style="endArrow=classic;startArrow=classic;html=1;rounded=0;exitX=0.5;exitY=0;exitDx=0;exitDy=0;entryX=0.5;entryY=1;entryDx=0;entryDy=0;" edge="1" parent="1" source="MEVX8h5RplZYgz9Gu9Su-13" target="MEVX8h5RplZYgz9Gu9Su-6">
          <mxGeometry width="50" height="50" relative="1" as="geometry">
            <mxPoint x="239.39" y="330" as="sourcePoint" />
            <mxPoint x="289.39" y="280" as="targetPoint" />
          </mxGeometry>
        </mxCell>
        <mxCell id="MEVX8h5RplZYgz9Gu9Su-31" value="" style="endArrow=classic;startArrow=classic;html=1;rounded=0;entryX=0.014;entryY=0.557;entryDx=0;entryDy=0;entryPerimeter=0;exitX=1;exitY=0.5;exitDx=0;exitDy=0;" edge="1" parent="1" source="MEVX8h5RplZYgz9Gu9Su-6" target="MEVX8h5RplZYgz9Gu9Su-16">
          <mxGeometry width="50" height="50" relative="1" as="geometry">
            <mxPoint x="340" y="340" as="sourcePoint" />
            <mxPoint x="390" y="290" as="targetPoint" />
          </mxGeometry>
        </mxCell>
        <mxCell id="MEVX8h5RplZYgz9Gu9Su-32" value="" style="endArrow=classic;startArrow=classic;html=1;rounded=0;entryX=0;entryY=0.5;entryDx=0;entryDy=0;exitX=0.5;exitY=0.5;exitDx=0;exitDy=0;exitPerimeter=0;" edge="1" parent="1" target="MEVX8h5RplZYgz9Gu9Su-6">
          <mxGeometry width="50" height="50" relative="1" as="geometry">
            <mxPoint x="125" y="250" as="sourcePoint" />
            <mxPoint x="210" y="130" as="targetPoint" />
          </mxGeometry>
        </mxCell>
        <mxCell id="MEVX8h5RplZYgz9Gu9Su-34" value="" style="sketch=0;outlineConnect=0;fontColor=#232F3E;gradientColor=none;fillColor=#232F3D;strokeColor=none;dashed=0;verticalLabelPosition=bottom;verticalAlign=top;align=center;html=1;fontSize=12;fontStyle=0;aspect=fixed;pointerEvents=1;shape=mxgraph.aws4.user;" vertex="1" parent="1">
          <mxGeometry x="60" y="207.5" width="78" height="78" as="geometry" />
        </mxCell>
        <mxCell id="MEVX8h5RplZYgz9Gu9Su-35" value="User" style="text;html=1;align=center;verticalAlign=middle;whiteSpace=wrap;rounded=0;" vertex="1" parent="1">
          <mxGeometry x="69" y="285.5" width="60" height="30" as="geometry" />
        </mxCell>
        <mxCell id="MEVX8h5RplZYgz9Gu9Su-36" value="WORKER 1" style="rounded=1;whiteSpace=wrap;html=1;" vertex="1" parent="1">
          <mxGeometry x="780" y="99.5" width="120" height="60" as="geometry" />
        </mxCell>
        <mxCell id="MEVX8h5RplZYgz9Gu9Su-37" value="WORKER 2" style="rounded=1;whiteSpace=wrap;html=1;" vertex="1" parent="1">
          <mxGeometry x="780" y="204.5" width="120" height="60" as="geometry" />
        </mxCell>
        <mxCell id="MEVX8h5RplZYgz9Gu9Su-38" value="WORKER 3" style="rounded=1;whiteSpace=wrap;html=1;" vertex="1" parent="1">
          <mxGeometry x="780" y="309.5" width="120" height="60" as="geometry" />
        </mxCell>
        <mxCell id="MEVX8h5RplZYgz9Gu9Su-39" value="" style="endArrow=classic;startArrow=classic;html=1;rounded=0;entryX=0;entryY=0.5;entryDx=0;entryDy=0;exitX=1;exitY=0.25;exitDx=0;exitDy=0;" edge="1" parent="1" source="MEVX8h5RplZYgz9Gu9Su-16" target="MEVX8h5RplZYgz9Gu9Su-36">
          <mxGeometry width="50" height="50" relative="1" as="geometry">
            <mxPoint x="730" y="177.5" as="sourcePoint" />
            <mxPoint x="780" y="127.5" as="targetPoint" />
          </mxGeometry>
        </mxCell>
        <mxCell id="MEVX8h5RplZYgz9Gu9Su-40" value="" style="endArrow=classic;startArrow=classic;html=1;rounded=0;entryX=0;entryY=0.5;entryDx=0;entryDy=0;exitX=1;exitY=0.5;exitDx=0;exitDy=0;" edge="1" parent="1" source="MEVX8h5RplZYgz9Gu9Su-16" target="MEVX8h5RplZYgz9Gu9Su-37">
          <mxGeometry width="50" height="50" relative="1" as="geometry">
            <mxPoint x="710" y="410" as="sourcePoint" />
            <mxPoint x="760" y="360" as="targetPoint" />
          </mxGeometry>
        </mxCell>
        <mxCell id="MEVX8h5RplZYgz9Gu9Su-41" value="" style="endArrow=classic;startArrow=classic;html=1;rounded=0;entryX=0;entryY=0.5;entryDx=0;entryDy=0;exitX=1;exitY=0.75;exitDx=0;exitDy=0;" edge="1" parent="1" source="MEVX8h5RplZYgz9Gu9Su-16" target="MEVX8h5RplZYgz9Gu9Su-38">
          <mxGeometry width="50" height="50" relative="1" as="geometry">
            <mxPoint x="600" y="520" as="sourcePoint" />
            <mxPoint x="650" y="470" as="targetPoint" />
          </mxGeometry>
        </mxCell>
      </root>
    </mxGraphModel>
  </diagram>
</mxfile>
